<?xml version="1.0" encoding="UTF-8"?>
<svg id="Camada_2" data-name="Camada 2" xmlns="http://www.w3.org/2000/svg" viewBox="0 0 292.52 310.99">
  <defs>
    <style>
      .cls-1 {
        fill: #e5e5e5;
      }

      .cls-2 {
        fill: #ef7a1a;
      }

      .cls-3 {
        fill: #f18a00;
      }
    </style>
  </defs>
  <g id="Camada_8" data-name="Camada 8">
    <path class="cls-1" d="M7.72,94.65s8.39,1.01,8.39,6.71,3.02,40.61,3.02,40.61c0,0-1.01,10.74-8.73,10.74s-10.41-5.37-10.41-10.07v-37.93s0-8.39,7.72-10.07Z"/>
    <path class="cls-1" d="M281.11,94.65s8.39,1.01,8.39,6.71,3.02,40.61,3.02,40.61c0,0-1.01,10.74-8.73,10.74s-10.41-5.37-10.41-10.07v-37.93s0-8.39,7.72-10.07Z"/>
    <path class="cls-2" d="M28.43,107.86c.6,11.83,11.01,85.98,91.57,159.48-2.52,33.23-2.39,29.58-2.55,31.95-.16,2.37-1.7,9.75,1.04,11.17s4.91-.19,7.93-2.96,99.81-79.4,133.14-177.48c28.6-89.22-231.46-24.3-231.13-22.17Z"/>
    <path class="cls-3" d="M145.37,0C91.8,0,23.83,45.08,27.86,101.59c4.03,56.51,37.76,114.91,115.3,114.91s120.83-66.19,120.83-114.91S216.06,0,145.37,0Z"/>
    <ellipse class="cls-1" cx="93.11" cy="86.38" rx="15.06" ry="15.21"/>
    <ellipse class="cls-1" cx="198.54" cy="86.38" rx="15.06" ry="15.21"/>
    <path class="cls-1" d="M139.21,131.73s-20.28-1.07-33.63-4.8-15.59,15.23-12.46,20.29c3.12,5.06,18.76,9.87,52.71,9.87s50.92-4,52.71-13.08c1.79-9.07-3.62-22.59-15.06-17.57-11.44,5.02-14.37,5.29-44.27,5.29Z"/>
  </g>
</svg>